<svg width="46" height="46" viewBox="0 0 46 46" fill="none" xmlns="http://www.w3.org/2000/svg">
<rect x="5" y="5" width="10" height="10" rx="2" fill="url(#paint0_linear_1_3)"/>
<rect x="18" y="5" width="10" height="10" rx="2" fill="url(#paint1_linear_1_3)"/>
<rect x="31" y="5" width="10" height="10" rx="2" fill="url(#paint2_linear_1_3)"/>
<rect x="5" y="18" width="10" height="10" rx="2" fill="url(#paint3_linear_1_3)"/>
<rect x="18" y="18" width="10" height="10" rx="2" fill="url(#paint4_linear_1_3)"/>
<rect x="31" y="18" width="10" height="10" rx="2" fill="url(#paint5_linear_1_3)"/>
<rect x="5" y="31" width="10" height="10" rx="2" fill="url(#paint6_linear_1_3)"/>
<rect x="18" y="31" width="10" height="10" rx="2" fill="url(#paint7_linear_1_3)"/>
<rect x="31" y="31" width="10" height="10" rx="2" fill="url(#paint8_linear_1_3)"/>
<defs>
<linearGradient id="paint0_linear_1_3" x1="10" y1="5" x2="10" y2="15" gradientUnits="userSpaceOnUse">
<stop stop-color="#7CF868"/>
<stop offset="1" stop-color="#20DA27"/>
</linearGradient>
<linearGradient id="paint1_linear_1_3" x1="23" y1="5" x2="23" y2="15" gradientUnits="userSpaceOnUse">
<stop stop-color="#FECC20"/>
<stop offset="1" stop-color="#FEB109"/>
</linearGradient>
<linearGradient id="paint2_linear_1_3" x1="36" y1="5" x2="36" y2="15" gradientUnits="userSpaceOnUse">
<stop stop-color="#FEB109"/>
<stop offset="1" stop-color="#F1771B"/>
</linearGradient>
<linearGradient id="paint3_linear_1_3" x1="10" y1="18" x2="10" y2="28" gradientUnits="userSpaceOnUse">
<stop stop-color="#EE2E25"/>
<stop offset="1" stop-color="#CA110C"/>
</linearGradient>
<linearGradient id="paint4_linear_1_3" x1="23" y1="18" x2="23" y2="28" gradientUnits="userSpaceOnUse">
<stop stop-color="#CCE0EB"/>
<stop offset="1" stop-color="#7F8181"/>
</linearGradient>
<linearGradient id="paint5_linear_1_3" x1="36" y1="18" x2="36" y2="28" gradientUnits="userSpaceOnUse">
<stop stop-color="#FD3A5B"/>
<stop offset="1" stop-color="#FD4C61"/>
</linearGradient>
<linearGradient id="paint6_linear_1_3" x1="10" y1="31" x2="10" y2="41" gradientUnits="userSpaceOnUse">
<stop stop-color="#BB5AE8"/>
<stop offset="1" stop-color="#8530BE"/>
</linearGradient>
<linearGradient id="paint7_linear_1_3" x1="23" y1="31" x2="23" y2="41" gradientUnits="userSpaceOnUse">
<stop stop-color="#1AD1FD"/>
<stop offset="1" stop-color="#1D62EE"/>
</linearGradient>
<linearGradient id="paint8_linear_1_3" x1="36" y1="31" x2="36" y2="41" gradientUnits="userSpaceOnUse">
<stop stop-color="#57E2D8"/>
<stop offset="1" stop-color="#13C388"/>
</linearGradient>
</defs>
</svg>
